<mxfile host="app.diagrams.net" modified="2024-03-19T13:45:30.240Z" agent="Mozilla/5.0 (Windows NT 10.0; Win64; x64) AppleWebKit/537.36 (KHTML, like Gecko) Chrome/122.0.0.0 Safari/537.36" etag="-7OINh7qmETsG_psQ-SU" version="24.0.6" type="github">
  <diagram name="Pagina-1" id="2xL5hSOCkPQhhSe2iLA3">
    <mxGraphModel dx="2022" dy="1784" grid="1" gridSize="10" guides="1" tooltips="1" connect="1" arrows="1" fold="1" page="1" pageScale="1" pageWidth="827" pageHeight="1169" math="0" shadow="0">
      <root>
        <mxCell id="0" />
        <mxCell id="1" parent="0" />
        <mxCell id="g44KLaVrJFj6UJTE19Py-1" value="Start" style="rounded=0;whiteSpace=wrap;html=1;" vertex="1" parent="1">
          <mxGeometry x="-400" y="120" width="120" height="60" as="geometry" />
        </mxCell>
        <mxCell id="g44KLaVrJFj6UJTE19Py-2" value="open chat" style="rounded=0;whiteSpace=wrap;html=1;" vertex="1" parent="1">
          <mxGeometry x="-200" y="120" width="120" height="60" as="geometry" />
        </mxCell>
        <mxCell id="g44KLaVrJFj6UJTE19Py-3" value="Fetch data drom database" style="rounded=0;whiteSpace=wrap;html=1;" vertex="1" parent="1">
          <mxGeometry x="440" y="280" width="120" height="60" as="geometry" />
        </mxCell>
        <mxCell id="g44KLaVrJFj6UJTE19Py-4" value="Establish connection" style="rounded=0;whiteSpace=wrap;html=1;" vertex="1" parent="1">
          <mxGeometry x="280" y="160" width="120" height="60" as="geometry" />
        </mxCell>
        <mxCell id="g44KLaVrJFj6UJTE19Py-11" value="Await input" style="rounded=0;whiteSpace=wrap;html=1;" vertex="1" parent="1">
          <mxGeometry x="647" y="580" width="120" height="60" as="geometry" />
        </mxCell>
        <mxCell id="g44KLaVrJFj6UJTE19Py-12" value="User starts typing" style="rounded=0;whiteSpace=wrap;html=1;" vertex="1" parent="1">
          <mxGeometry x="647" y="700" width="120" height="60" as="geometry" />
        </mxCell>
        <mxCell id="g44KLaVrJFj6UJTE19Py-13" value="User sends message" style="rounded=0;whiteSpace=wrap;html=1;" vertex="1" parent="1">
          <mxGeometry x="647" y="940" width="120" height="60" as="geometry" />
        </mxCell>
        <mxCell id="g44KLaVrJFj6UJTE19Py-14" value="Show message to chat of other members" style="rounded=0;whiteSpace=wrap;html=1;" vertex="1" parent="1">
          <mxGeometry x="647" y="1180" width="120" height="60" as="geometry" />
        </mxCell>
        <mxCell id="g44KLaVrJFj6UJTE19Py-15" value="Show other users that user that is typing" style="rounded=0;whiteSpace=wrap;html=1;" vertex="1" parent="1">
          <mxGeometry x="647" y="820" width="120" height="60" as="geometry" />
        </mxCell>
        <mxCell id="g44KLaVrJFj6UJTE19Py-16" value="Save message in database" style="rounded=0;whiteSpace=wrap;html=1;" vertex="1" parent="1">
          <mxGeometry x="647" y="1060" width="120" height="60" as="geometry" />
        </mxCell>
        <mxCell id="g44KLaVrJFj6UJTE19Py-29" style="edgeStyle=orthogonalEdgeStyle;rounded=0;orthogonalLoop=1;jettySize=auto;html=1;" edge="1" parent="1" source="g44KLaVrJFj6UJTE19Py-26" target="g44KLaVrJFj6UJTE19Py-28">
          <mxGeometry relative="1" as="geometry" />
        </mxCell>
        <mxCell id="g44KLaVrJFj6UJTE19Py-26" value="Close chat" style="rounded=0;whiteSpace=wrap;html=1;" vertex="1" parent="1">
          <mxGeometry x="447" y="700" width="120" height="60" as="geometry" />
        </mxCell>
        <mxCell id="g44KLaVrJFj6UJTE19Py-28" value="Terminate Connection" style="rounded=0;whiteSpace=wrap;html=1;" vertex="1" parent="1">
          <mxGeometry x="447" y="820" width="120" height="60" as="geometry" />
        </mxCell>
        <mxCell id="g44KLaVrJFj6UJTE19Py-34" value="Client1" style="shape=umlActor;verticalLabelPosition=bottom;verticalAlign=top;html=1;outlineConnect=0;" vertex="1" parent="1">
          <mxGeometry x="160" y="-30" width="40" height="70" as="geometry" />
        </mxCell>
        <mxCell id="g44KLaVrJFj6UJTE19Py-35" value="Server" style="shape=umlActor;verticalLabelPosition=bottom;verticalAlign=top;html=1;outlineConnect=0;" vertex="1" parent="1">
          <mxGeometry x="320" y="-30" width="40" height="70" as="geometry" />
        </mxCell>
        <mxCell id="g44KLaVrJFj6UJTE19Py-38" value="Database" style="shape=umlActor;verticalLabelPosition=bottom;verticalAlign=top;html=1;outlineConnect=0;" vertex="1" parent="1">
          <mxGeometry x="480" y="-30" width="40" height="70" as="geometry" />
        </mxCell>
        <mxCell id="g44KLaVrJFj6UJTE19Py-41" value="User1" style="shape=umlActor;verticalLabelPosition=bottom;verticalAlign=top;html=1;outlineConnect=0;" vertex="1" parent="1">
          <mxGeometry x="-160" y="-30" width="40" height="70" as="geometry" />
        </mxCell>
        <mxCell id="g44KLaVrJFj6UJTE19Py-43" value="Client2" style="shape=umlActor;verticalLabelPosition=bottom;verticalAlign=top;html=1;outlineConnect=0;" vertex="1" parent="1">
          <mxGeometry y="-30" width="40" height="70" as="geometry" />
        </mxCell>
        <mxCell id="g44KLaVrJFj6UJTE19Py-46" value="Ask for past Messages" style="rounded=0;whiteSpace=wrap;html=1;" vertex="1" parent="1">
          <mxGeometry x="-200" y="200" width="120" height="60" as="geometry" />
        </mxCell>
        <mxCell id="g44KLaVrJFj6UJTE19Py-47" value="Request data from database" style="rounded=0;whiteSpace=wrap;html=1;" vertex="1" parent="1">
          <mxGeometry x="280" y="240" width="120" height="60" as="geometry" />
        </mxCell>
        <mxCell id="g44KLaVrJFj6UJTE19Py-48" value="Send data to client" style="rounded=0;whiteSpace=wrap;html=1;" vertex="1" parent="1">
          <mxGeometry x="280" y="320" width="120" height="60" as="geometry" />
        </mxCell>
        <mxCell id="g44KLaVrJFj6UJTE19Py-49" value="Load into the caht requested messages" style="rounded=0;whiteSpace=wrap;html=1;" vertex="1" parent="1">
          <mxGeometry x="-200" y="360" width="120" height="60" as="geometry" />
        </mxCell>
      </root>
    </mxGraphModel>
  </diagram>
</mxfile>
